HIERARCHY
ROOT Hips
{
  OFFSET 179.979 97.3047 303.174
  CHANNELS 6 Xposition Yposition Zposition Zrotation Xrotation Yrotation
  JOINT Spine
  {
    OFFSET 0.000859786 9.92346 -1.22733
    CHANNELS 3 Zrotation Xrotation Yrotation
    JOINT Spine1
    {
      OFFSET 0 11.732 0
      CHANNELS 3 Zrotation Xrotation Yrotation
      JOINT Spine2
      {
        OFFSET 0 13.4588 0
        CHANNELS 3 Zrotation Xrotation Yrotation
        JOINT Neck
        {
          OFFSET 2.54812e-05 15.0278 0.877907
          CHANNELS 3 Zrotation Xrotation Yrotation
          JOINT Head
          {
            OFFSET 0 10.3218 3.14243
            CHANNELS 3 Zrotation Xrotation Yrotation
            End Site
            {
              OFFSET 0 0 0
            }
          }
        }
        JOINT LeftShoulder
        {
          OFFSET 6.10582 9.10629 0.757062
          CHANNELS 3 Zrotation Xrotation Yrotation
          JOINT LeftArm
          {
            OFFSET 0 12.9223 0
            CHANNELS 3 Zrotation Xrotation Yrotation
            JOINT LeftForeArm
            {
              OFFSET 0 27.4047 0
              CHANNELS 3 Zrotation Xrotation Yrotation
              JOINT LeftHand
              {
                OFFSET -1.28204e-05 27.6145 0
                CHANNELS 3 Zrotation Xrotation Yrotation
                End Site
                {
                  OFFSET 0 0 0
                }
              }
            }
          }
        }
        JOINT RightShoulder
        {
          OFFSET -6.1057 9.10638 0.757076
          CHANNELS 3 Zrotation Xrotation Yrotation
          JOINT RightArm
          {
            OFFSET 0 12.9223 0
            CHANNELS 3 Zrotation Xrotation Yrotation
            JOINT RightForeArm
            {
              OFFSET 0 27.4047 0
              CHANNELS 3 Zrotation Xrotation Yrotation
              JOINT RightHand
              {
                OFFSET 1.28428e-05 27.6145 1.44975e-05
                CHANNELS 3 Zrotation Xrotation Yrotation
                End Site
                {
                  OFFSET 0 0 0
                }
              }
            }
          }
        }
      }
    }
  }
  JOINT LeftUpLeg
  {
    OFFSET 9.12387 -6.65719 -0.0554031
    CHANNELS 3 Zrotation Xrotation Yrotation
    JOINT LeftLeg
    {
      OFFSET 0 40.5994 0
      CHANNELS 3 Zrotation Xrotation Yrotation
      JOINT LeftFoot
      {
        OFFSET 0 42.099 0
        CHANNELS 3 Zrotation Xrotation Yrotation
        JOINT LeftToeBase
        {
          OFFSET 0 15.7216 0
          CHANNELS 3 Zrotation Xrotation Yrotation
          End Site
          {
            OFFSET 0 0 0
          }
        }
      }
    }
  }
  JOINT RightUpLeg
  {
    OFFSET -9.12503 -6.6556 -0.0553527
    CHANNELS 3 Zrotation Xrotation Yrotation
    JOINT RightLeg
    {
      OFFSET 0 40.5994 0
      CHANNELS 3 Zrotation Xrotation Yrotation
      JOINT RightFoot
      {
        OFFSET 0 42.099 0
        CHANNELS 3 Zrotation Xrotation Yrotation
        JOINT RightToeBase
        {
          OFFSET 0 15.7216 0
          CHANNELS 3 Zrotation Xrotation Yrotation
          End Site
          {
            OFFSET 0 0 0
          }
        }
      }
    }
  }
}
MOTION
Frames:	12
Frame Time:	0.0333333
-101.72 51.2694 102.456 -31.1473 -17.9244 97.1406 2.35488 5.07572 0.781063 4.85286 24.0987 0.466178 4.79074 30.693 0.497216 2.12587 6.7481 -1.29765 15.0746 -41.9474 2.28093 -83.7281 -0.340746 90.7198 69.6096 -10.9729 -17.7023 22.1903 -19.6559 -0.93576 4.66223 -17.0732 9.54375 84.739 15.8844 -91.5797 -87.2321 4.19031 36.1674 -38.5504 -19.3591 1.10255 35.7982 -28.0287 35.9114 -67.1316 64.457 -113.971 174.531 -36.6365 171.514 7.82484 73.7848 -11.9624 -0.965259 26.367 -3.60229 76.3223 70.7256 108.623 -173.804 -44.4236 -175.125 -5.25454 77.5724 3.18684 0.963532 26.3682 3.55537 
-104.874 47.9516 106.316 -24.5777 -18.1619 101.118 1.96895 5.57432 0.759024 4.04482 25.0998 0.58868 3.96561 31.694 0.628559 2.76145 4.36295 -2.04263 14.6247 -41.5736 1.5531 -83.1815 0.135008 90.6835 70.4682 -12.0933 -17.8736 21.4632 -19.1061 -0.908683 2.44598 -20.7761 8.42878 84.3403 16.1214 -91.4739 -87.5833 2.71501 39.638 -38.2133 -19.8842 1.12252 38.1761 -26.1226 37.9503 -62.0352 65.394 -111.316 175.362 -31.7542 174.177 5.0535 79.1919 -9.77493 -0.965259 26.367 -3.60229 75.4524 70.3607 113.089 -173.86 -37.5691 -173.695 -12.0923 78.7497 10.3965 0.963532 26.3682 3.55537 
-107.563 45.2137 109.734 -19.5287 -16.0299 104.904 1.4405 6.0187 0.768065 2.91335 25.9929 0.860568 2.7964 32.5866 0.919643 2.11897 0.69412 -2.92245 14.5669 -40.9499 0.161432 -83.1165 0.4973 90.6774 73.3683 -12.0988 -20.0818 21.4624 -18.4149 -0.875918 -0.75668 -24.6852 7.21656 84.0925 15.8356 -91.3896 -86.8824 1.14648 42.5313 -37.8066 -20.3914 1.14149 39.7897 -24.3447 39.2766 -54.5761 64.9049 -117.989 175.709 -27.6741 172.702 19.0333 80.5467 -21.4295 -0.965259 26.367 -3.60229 73.1436 70.0503 115.253 -174.339 -32.011 -173.587 -15.3584 81.5349 15.8052 0.963532 26.3682 3.55537 
-109.963 42.7256 112.463 -14.7723 -13.1025 108.489 1.11146 6.56717 0.784061 2.20288 27.0908 1.05274 2.05805 33.6841 1.12764 0.204807 -2.57358 -3.76354 15.0589 -40.1646 -1.5089 -84.375 1.17705 90.8516 77.2442 -11.1722 -21.9336 22.3882 -18.1692 -0.864921 -5.57248 -29.4265 4.81794 84.1107 16.0285 -91.4029 -84.9299 -0.40471 44.4482 -36.2956 -21.0006 1.15799 37.8948 -22.0896 37.788 -46.9462 64.6862 -123.204 176.234 -24.7548 173.799 15.5233 80.167 -17.7184 -0.965259 26.367 -3.60229 74.606 69.9349 110.985 -174.972 -27.5214 -175.002 -12.656 85.8982 16.2613 0.963532 26.3682 3.55537 
-111.886 40.9171 114.593 -10.8817 -10.1955 111.385 0.979005 7.01515 0.848065 1.89958 27.9879 1.25044 1.72558 34.5808 1.34236 -1.30867 -4.67971 -4.71686 14.3892 -39.7454 -3.16981 -85.6907 2.05261 91.0762 81.4503 -8.20496 -25.3515 23.9842 -18.8109 -0.895308 -7.67756 -33.6902 4.69136 84.0831 16.3459 -91.408 -82.3892 -1.04856 45.3573 -33.9115 -21.4472 1.16049 33.2265 -19.7466 34.9163 -44.2243 65.4564 -121.975 176.8 -23.2525 177.241 1.19984 82.2987 -4.53201 -0.965259 26.367 -3.60229 80.1269 69.6153 104.325 -175.382 -24.3794 -175.066 -138.97 88.4746 144.096 0.963532 26.3682 3.55537 
-113.362 39.9046 116.244 -8.76684 -7.66656 113.709 0.848556 7.12975 0.867855 1.6096 28.2167 1.36126 1.41966 34.8092 1.46201 -1.29671 -5.60375 -5.341 12.5313 -39.7031 -4.07806 -85.9486 2.57519 91.1511 85.2447 -3.30679 -30.3231 26.3064 -19.0376 -0.902344 -11.5509 -33.931 0.831282 84.6286 16.4971 -91.5757 -79.8523 -0.673013 44.7132 -31.3357 -21.3094 1.13483 26.8349 -17.0023 30.5052 -46.2303 65.2333 -119.946 176.913 -22.9218 178.785 -8.33756 85.7389 5.35469 -0.965259 26.367 -3.60229 82.5475 68.5502 102.177 -175.614 -22.4461 -173.94 -155.835 84.8521 161.124 0.963532 26.3682 3.55537 
-114.35 39.9515 117.601 -7.48537 -6.10939 115.883 0.895605 7.1242 0.779588 1.7368 28.2044 1.15029 1.57644 34.7975 1.23559 -1.14836 -6.36033 -5.6267 10.7231 -39.3171 -4.61896 -86.5477 2.63382 91.262 88.5016 1.68608 -34.1237 27.0871 -19.2482 -0.910427 -18.9212 -34.4425 -9.47322 85.0457 16.036 -91.6764 -78.2999 1.14365 42.9886 -30.3355 -20.9597 1.11141 23.608 -15.353 23.2382 -50.2349 64.0375 -118.638 176.629 -23.7713 178.379 5.96776 88.233 -6.84629 -0.965259 26.367 -3.60229 82.921 67.3637 103.765 -175.442 -21.9952 -172.075 -144.295 84.1556 149.351 0.963532 26.3682 3.55537 
-114.964 40.7167 118.612 -6.92333 -5.46274 117.845 0.990312 6.94247 0.525316 2.01205 27.8371 0.568434 1.93362 34.4313 0.610518 -0.0867904 -5.85832 -5.05446 8.6423 -39.4918 -3.98573 -86.9834 3.21966 91.3787 89.443 7.13903 -37.5598 27.4525 -19.7949 -0.935694 -21.5697 -32.3955 -13.1791 85.7214 15.2654 -91.8317 -78.1696 4.66653 41.7157 -31.0702 -20.7216 1.10739 21.8075 -15.7231 14.6741 -52.9805 61.8997 -119.315 176.295 -25.3126 177.438 41.4701 87.7955 -39.1971 -0.965259 26.367 -3.60229 82.6318 66.2726 106.221 -175.15 -22.6528 -170.454 -124.839 84.5796 129.361 0.963532 26.3682 3.55537 
-115.296 41.8702 119.401 -7.25245 -4.79466 119.433 0.891603 6.6551 0.172635 1.88823 27.257 -0.111658 1.90475 33.8515 -0.118649 1.37079 -5.04326 -3.93253 6.90766 -39.4131 -2.61497 -87.3677 3.24329 91.4515 89.5469 12.4038 -39.6018 27.6428 -19.4255 -0.917249 -21.0369 -31.9292 -12.9474 86.7918 14.4255 -92.0848 -79.1417 9.26773 40.7025 -32.1416 -21.174 1.13533 20.0798 -17.2141 8.05192 -56.5977 59.7933 -119.844 175.83 -27.3593 176.574 48.4287 86.5944 -43.2944 -0.965259 26.367 -3.60229 83.6922 65.4373 106.206 -174.868 -23.957 -169.498 -118.09 84.3122 122.364 0.963532 26.3682 3.55537 
-115.38 43.0929 119.9 -8.20819 -4.36491 120.675 0.768303 6.246 -0.135574 1.69385 26.4353 -0.682071 1.78867 33.0293 -0.727794 1.95549 -3.99161 -2.6834 5.62895 -39.7687 -1.27989 -87.8088 3.32657 91.5393 89.4156 17.0685 -39.3664 26.5032 -19.4713 -0.922652 -22.5938 -30.344 -15.1221 87.7967 13.2617 -92.2823 -80.6915 14.6478 41.3841 -33.2595 -21.3148 1.14997 19.1751 -19.8158 3.46087 -59.8974 58.209 -119.283 175.521 -29.5211 177.06 37.9727 86.0092 -31.2434 -0.965259 26.367 -3.60229 84.3969 64.6897 106.351 -174.566 -25.3668 -168.489 -115.017 83.7864 119.03 0.963532 26.3682 3.55537 
-115.354 44.2298 120.282 -9.06093 -4.19943 121.641 0.691872 5.8942 -0.376076 1.58165 25.7293 -1.13581 1.73763 32.3224 -1.21029 1.76252 -3.06689 -1.78169 4.46684 -40.2719 -0.544598 -88.3816 3.40839 91.6525 88.9617 20.6294 -39.4246 24.7931 -18.8762 -0.89731 -23.8657 -28.5271 -17.8883 88.6028 12.8148 -92.4656 -81.7605 19.6302 42.38 -32.9534 -21.2875 1.1465 18.3135 -24.0809 0.061664 -62.7578 56.9187 -118.024 175.337 -31.5069 178.097 27.1917 85.7424 -19.2213 -0.965259 26.367 -3.60229 84.4546 64.3874 107.122 -174.228 -26.7206 -167.466 -106.529 83.5699 110.458 0.963532 26.3682 3.55537 
-115.247 45.1671 120.529 -9.91038 -4.23216 122.231 0.599794 5.62947 -0.488299 1.40459 25.1998 -1.31644 1.58422 31.7924 -1.40103 2.40541 -4.09746 -1.0404 2.69561 -39.303 0.123901 -89.0382 3.64206 91.7948 88.1884 22.7912 -39.8043 22.974 -17.9474 -0.854813 -23.8655 -27.9224 -17.9772 89.1616 12.2825 -92.5707 -82.8266 23.0884 42.6948 -30.7364 -21.1852 1.12445 18.599 -24.7296 1.16642 -64.8813 56.1499 -117.104 175.246 -33.0833 178.741 21.2528 85.666 -12.7122 -0.965259 26.367 -3.60229 83.3367 64.698 108.485 -174.031 -27.8272 -166.746 -93.5967 83.5638 97.8506 0.963532 26.3682 3.55537 
